<svg version="1.1" id="Layer_1" xmlns="http://www.w3.org/2000/svg" xmlns:xlink="http://www.w3.org/1999/xlink" x="0px" y="0px"
	 width="100%" viewBox="0 0 860 382" enable-background="new 0 0 860 382" xml:space="preserve">
<path fill="#3361BB" opacity="1.000000" stroke="none" 
	d="
M819.000000,383.000000 
	C546.000061,383.000000 273.500092,383.000000 1.000110,383.000000 
	C1.000073,255.666733 1.000073,128.333481 1.000037,1.000161 
	C287.666534,1.000107 574.333069,1.000107 860.999756,1.000054 
	C860.999817,128.333191 860.999817,255.666382 860.999878,382.999786 
	C847.166687,383.000000 833.333313,383.000000 819.000000,383.000000 
M705.599304,206.499527 
	C705.599304,214.159027 705.599304,221.818542 705.599304,229.478043 
	C705.599304,241.899414 706.347534,242.466553 718.951294,241.236023 
	C722.717712,240.868286 724.073181,239.349182 724.004333,235.539200 
	C723.805847,224.552917 724.183777,213.552414 723.817688,202.574768 
	C723.662598,197.923706 725.236206,194.672363 728.557800,191.779526 
	C731.938232,188.835526 735.406738,186.215439 740.175964,188.041336 
	C744.721985,189.781754 745.997620,193.856400 746.139038,198.136017 
	C746.485291,208.610016 746.602173,219.093582 746.673157,229.574234 
	C746.756165,241.833221 747.615662,242.559555 760.117065,241.210495 
	C763.581116,240.836670 765.051025,239.520203 764.993530,235.865433 
	C764.817993,224.711823 764.930054,213.553665 764.931641,202.397278 
	C764.932495,196.241852 769.193298,190.201111 775.040405,188.060913 
	C779.586060,186.397141 784.106689,187.966034 785.692627,192.567520 
	C786.965027,196.259109 787.580688,200.326080 787.675171,204.246048 
	C787.935852,215.063187 787.654968,225.892303 787.815552,236.713318 
	C787.916138,243.487747 793.480225,241.113495 796.805115,241.150085 
	C800.181946,241.187225 805.624023,243.302872 805.903992,236.752335 
	C806.173950,230.436310 806.080750,224.097260 805.940063,217.772919 
	C805.725647,208.136734 805.937805,198.435608 804.850708,188.889404 
	C803.698425,178.770294 796.982666,173.015152 787.042908,171.632248 
	C779.272522,170.551178 772.630859,172.971603 766.700684,177.810669 
	C765.066833,179.143890 763.495178,180.553238 761.717590,182.080048 
	C757.318237,174.308014 750.582520,171.301193 742.410828,171.270874 
	C734.173157,171.240295 727.786011,175.656570 721.764893,181.182831 
	C720.500916,172.532730 720.107483,172.196548 712.298279,172.538986 
	C711.965759,172.553589 711.632385,172.621658 711.302124,172.606277 
	C707.148560,172.413101 705.374451,174.096512 705.515686,178.527084 
	C705.801880,187.509659 705.600037,196.507782 705.599304,206.499527 
M67.575821,224.116913 
	C65.213982,222.894638 62.951477,221.347748 60.449848,220.582336 
	C59.131104,220.178864 56.561607,220.628082 55.984924,221.568237 
	C52.652000,227.001923 55.572536,235.795700 61.441952,238.486221 
	C70.834702,242.791840 80.742203,243.548691 90.736427,241.593872 
	C104.506126,238.900604 113.196877,230.206879 114.775826,218.266113 
	C116.573494,204.671280 111.775070,196.094040 98.228577,189.014038 
	C92.927177,186.243301 87.379578,183.927795 82.169250,181.003769 
	C78.236908,178.796967 75.241821,175.592453 76.478569,170.445969 
	C77.731277,165.233063 81.658447,163.236649 86.500565,163.112701 
	C89.603409,163.033264 92.832962,163.449051 95.814606,164.306992 
	C98.976364,165.216751 101.854881,167.073517 104.976517,168.179718 
	C106.112549,168.582306 108.129944,168.523743 108.819206,167.797150 
	C111.303230,165.178543 109.884132,154.534271 107.055809,152.507141 
	C96.510559,144.949097 73.174828,146.838181 63.921219,155.999008 
	C52.034161,167.766876 54.950283,188.513290 69.882370,197.040710 
	C76.226280,200.663605 82.990761,203.545303 89.380836,207.093872 
	C93.405174,209.328690 95.903717,212.810684 95.017036,217.815353 
	C94.151718,222.699463 90.883957,226.017136 86.332336,226.174713 
	C80.344963,226.382004 74.305786,225.092743 67.575821,224.116913 
M679.219238,236.826172 
	C696.070557,225.595749 694.616333,195.930557 687.575012,184.460114 
	C681.620911,174.760895 672.158936,172.107956 661.617249,171.320557 
	C645.628052,170.126236 632.361450,177.590012 627.452393,191.565247 
	C623.476196,202.884842 623.682373,214.431961 628.033264,225.718475 
	C630.979919,233.362549 636.665833,238.450577 644.401489,240.592453 
	C656.117859,243.836517 667.722656,243.656677 679.219238,236.826172 
M189.561157,229.734146 
	C191.966339,235.638977 196.075455,239.705338 202.294540,241.452850 
	C213.655624,244.645218 223.066986,240.787720 231.389694,232.640778 
	C232.563049,242.555786 231.999603,240.811386 241.315643,241.322510 
	C246.248199,241.593140 247.929642,239.544052 247.846954,234.519455 
	C247.569946,217.690826 247.742218,200.854813 247.742325,184.021622 
	C247.742386,172.232010 246.769882,171.506287 234.877975,172.561615 
	C230.600784,172.941177 229.247269,174.693253 229.336273,178.885315 
	C229.569733,189.880249 229.418762,200.883438 229.411911,211.883347 
	C229.407791,218.475861 223.368698,225.368256 216.801285,226.260284 
	C212.499329,226.844604 208.954315,225.355316 207.538452,221.245605 
	C206.319077,217.706238 205.669449,213.832809 205.545883,210.081451 
	C205.260696,201.424118 205.445633,192.751221 205.443939,184.084641 
	C205.441620,172.150696 204.608170,171.510178 192.714417,172.570480 
	C188.609680,172.936417 186.921158,174.374039 187.024475,178.747879 
	C187.295990,190.241394 186.903168,201.751358 187.214996,213.242813 
	C187.358109,218.516937 188.533188,223.763077 189.561157,229.734146 
M397.247772,239.317627 
	C408.899475,244.054993 420.713043,243.155960 432.507080,240.106750 
	C439.694366,238.248566 440.167572,237.389877 440.078857,230.112854 
	C440.004639,224.022812 439.417053,224.065353 433.169281,225.397171 
	C426.270020,226.867859 419.104431,228.234039 412.131897,227.922348 
	C403.685181,227.544754 399.311462,220.853836 400.298279,212.046097 
	C401.565948,211.981323 402.873199,211.858704 404.180634,211.856552 
	C414.677124,211.839355 425.173645,211.831589 435.670105,211.850723 
	C439.314209,211.857361 442.589050,211.103500 442.910828,206.763138 
	C443.851715,194.071030 441.004669,180.709473 428.790039,174.567825 
	C416.807037,168.542633 398.797882,170.556366 390.311676,180.295502 
	C378.604797,193.730774 378.929443,209.492523 384.017517,225.492783 
	C386.018738,231.785919 390.494537,236.249893 397.247772,239.317627 
M503.013092,240.644073 
	C504.751495,240.078323 506.540283,239.631653 508.217804,238.922012 
	C511.684235,237.455551 513.851440,230.313751 511.744781,226.258545 
	C509.745178,222.409393 506.867065,225.538818 504.348663,225.840866 
	C497.641174,226.645325 490.880890,228.303741 484.229187,227.954544 
	C475.759003,227.509888 471.469025,221.105103 472.222992,211.847168 
	C482.304413,211.847168 492.433105,211.847366 502.561768,211.847107 
	C515.021484,211.846802 515.568481,211.274261 514.946350,198.889343 
	C514.285645,185.735550 507.587219,176.201004 496.740814,172.975616 
	C481.994080,168.590408 467.166443,172.543976 459.820435,183.224075 
	C451.791809,194.896606 451.577057,207.909592 454.559448,221.114395 
	C457.021362,232.014969 463.977966,238.727554 474.986267,241.233658 
	C484.115173,243.311874 493.159058,242.611938 503.013092,240.644073 
M317.594208,172.473892 
	C308.287445,172.958023 307.876282,173.532883 310.853363,182.619659 
	C315.617706,197.161530 320.421234,211.690643 325.236420,226.215790 
	C330.527374,242.176193 330.536072,242.049591 347.585022,241.319626 
	C352.267822,241.119125 354.700500,239.407028 356.154602,234.824677 
	C361.486206,218.023132 367.213104,201.347153 372.776581,184.619034 
	C376.630768,173.030502 375.447418,171.665665 363.140900,172.507294 
	C359.094116,172.784042 356.853607,174.193512 355.819702,178.354889 
	C354.137451,185.125870 351.863953,191.751053 349.806213,198.427338 
	C347.536865,205.790344 345.229492,213.141617 342.554810,221.730637 
	C338.103363,207.392868 334.050842,194.383774 330.027466,181.365677 
	C327.375702,172.785599 327.394470,172.779800 317.594208,172.473892 
M163.906372,188.135910 
	C165.894135,189.341110 167.773148,190.834564 169.911301,191.641098 
	C171.151688,192.108994 173.423691,192.040237 174.168869,191.232590 
	C177.009308,188.154007 174.987350,177.743134 171.406952,175.497833 
	C161.311279,169.166672 144.595383,170.629089 135.196533,177.970566 
	C121.215874,188.890945 121.274391,218.886261 129.334259,230.689819 
	C136.481674,241.157135 150.528854,245.270477 165.128235,240.841949 
	C174.396774,238.030457 176.999420,233.803802 175.413620,224.138641 
	C174.691757,219.739059 173.645950,219.263840 169.971832,221.630966 
	C168.158539,222.799225 166.394363,224.074280 164.479996,225.049911 
	C154.825851,229.970016 145.949966,226.354401 143.787231,215.874268 
	C142.639038,210.310333 142.572556,204.203079 143.521103,198.595383 
	C145.310822,188.014755 152.733429,184.314636 163.906372,188.135910 
M586.759827,222.634354 
	C581.087402,213.549652 581.456543,203.916763 584.872131,194.360687 
	C587.196716,187.857040 593.014404,185.086655 599.819885,186.883591 
	C603.106140,187.751282 606.000366,190.017136 609.237549,191.195175 
	C610.748901,191.745163 613.455139,191.925446 614.234924,191.045761 
	C616.970703,187.959213 615.008728,177.880814 611.658936,175.673553 
	C599.249084,167.496323 579.017151,171.175369 570.419189,183.309952 
	C564.432800,191.758743 563.596008,201.470459 563.957886,211.440125 
	C564.759216,233.513458 578.099609,244.852936 600.001221,242.015396 
	C611.697388,240.500076 616.031128,236.410385 615.590271,226.901138 
	C615.489441,224.725479 614.431702,222.594177 613.814331,220.442474 
	C611.937317,221.277512 609.902405,221.872986 608.210083,222.988205 
	C599.982605,228.409714 593.640747,228.541321 586.759827,222.634354 
M267.945160,240.827209 
	C271.592346,240.945709 275.238770,241.108414 278.886932,241.170471 
	C282.628723,241.234131 284.081696,239.472153 284.006226,235.608337 
	C283.798431,224.967056 283.922974,214.319046 283.939270,203.673721 
	C283.953949,194.074783 292.058929,187.651779 301.519684,189.498520 
	C302.814026,189.751160 305.580994,188.786057 305.580017,188.389862 
	C305.567383,183.226044 306.045563,177.793457 304.555939,173.001877 
	C303.671906,170.158234 294.155457,170.731018 290.102142,173.360016 
	C288.173370,174.611023 286.459076,176.250275 284.845337,177.906326 
	C283.972839,178.801712 283.516541,180.102646 282.330963,182.160538 
	C280.132904,172.532959 279.036285,171.939453 270.595917,172.602875 
	C266.798492,172.901337 265.503082,174.408325 265.532928,178.218338 
	C265.682617,197.345505 265.563354,216.474701 265.670593,235.602448 
	C265.679749,237.236725 266.657440,238.865585 267.945160,240.827209 
M542.884521,219.790131 
	C538.639893,219.851837 532.975037,218.386139 531.311584,223.157257 
	C529.739441,227.666443 529.744995,233.412735 531.057678,238.048248 
	C532.381653,242.723709 537.813599,242.036514 541.935181,241.865067 
	C548.022522,241.611816 550.349487,239.258713 550.908997,233.353104 
	C551.728088,224.707275 549.948242,221.387405 542.884521,219.790131 
z"/>
<path fill="#FDFEFE" opacity="1.000000" stroke="none" 
	d="
M705.599365,205.999512 
	C705.600037,196.507782 705.801880,187.509659 705.515686,178.527084 
	C705.374451,174.096512 707.148560,172.413101 711.302124,172.606277 
	C711.632385,172.621658 711.965759,172.553589 712.298279,172.538986 
	C720.107483,172.196548 720.500916,172.532730 721.764893,181.182831 
	C727.786011,175.656570 734.173157,171.240295 742.410828,171.270874 
	C750.582520,171.301193 757.318237,174.308014 761.717590,182.080048 
	C763.495178,180.553238 765.066833,179.143890 766.700684,177.810669 
	C772.630859,172.971603 779.272522,170.551178 787.042908,171.632248 
	C796.982666,173.015152 803.698425,178.770294 804.850708,188.889404 
	C805.937805,198.435608 805.725647,208.136734 805.940063,217.772919 
	C806.080750,224.097260 806.173950,230.436310 805.903992,236.752335 
	C805.624023,243.302872 800.181946,241.187225 796.805115,241.150085 
	C793.480225,241.113495 787.916138,243.487747 787.815552,236.713318 
	C787.654968,225.892303 787.935852,215.063187 787.675171,204.246048 
	C787.580688,200.326080 786.965027,196.259109 785.692627,192.567520 
	C784.106689,187.966034 779.586060,186.397141 775.040405,188.060913 
	C769.193298,190.201111 764.932495,196.241852 764.931641,202.397278 
	C764.930054,213.553665 764.817993,224.711823 764.993530,235.865433 
	C765.051025,239.520203 763.581116,240.836670 760.117065,241.210495 
	C747.615662,242.559555 746.756165,241.833221 746.673157,229.574234 
	C746.602173,219.093582 746.485291,208.610016 746.139038,198.136017 
	C745.997620,193.856400 744.721985,189.781754 740.175964,188.041336 
	C735.406738,186.215439 731.938232,188.835526 728.557800,191.779526 
	C725.236206,194.672363 723.662598,197.923706 723.817688,202.574768 
	C724.183777,213.552414 723.805847,224.552917 724.004333,235.539200 
	C724.073181,239.349182 722.717712,240.868286 718.951294,241.236023 
	C706.347534,242.466553 705.599304,241.899414 705.599304,229.478043 
	C705.599304,221.818542 705.599304,214.159027 705.599365,205.999512 
z"/>
<path fill="#FCFDFE" opacity="1.000000" stroke="none" 
	d="
M67.932350,224.281952 
	C74.305786,225.092743 80.344963,226.382004 86.332336,226.174713 
	C90.883957,226.017136 94.151718,222.699463 95.017036,217.815353 
	C95.903717,212.810684 93.405174,209.328690 89.380836,207.093872 
	C82.990761,203.545303 76.226280,200.663605 69.882370,197.040710 
	C54.950283,188.513290 52.034161,167.766876 63.921219,155.999008 
	C73.174828,146.838181 96.510559,144.949097 107.055809,152.507141 
	C109.884132,154.534271 111.303230,165.178543 108.819206,167.797150 
	C108.129944,168.523743 106.112549,168.582306 104.976517,168.179718 
	C101.854881,167.073517 98.976364,165.216751 95.814606,164.306992 
	C92.832962,163.449051 89.603409,163.033264 86.500565,163.112701 
	C81.658447,163.236649 77.731277,165.233063 76.478569,170.445969 
	C75.241821,175.592453 78.236908,178.796967 82.169250,181.003769 
	C87.379578,183.927795 92.927177,186.243301 98.228577,189.014038 
	C111.775070,196.094040 116.573494,204.671280 114.775826,218.266113 
	C113.196877,230.206879 104.506126,238.900604 90.736427,241.593872 
	C80.742203,243.548691 70.834702,242.791840 61.441952,238.486221 
	C55.572536,235.795700 52.652000,227.001923 55.984924,221.568237 
	C56.561607,220.628082 59.131104,220.178864 60.449848,220.582336 
	C62.951477,221.347748 65.213982,222.894638 67.932350,224.281952 
z"/>
<path fill="#FCFDFE" opacity="1.000000" stroke="none" 
	d="
M678.898743,237.000580 
	C667.722656,243.656677 656.117859,243.836517 644.401489,240.592453 
	C636.665833,238.450577 630.979919,233.362549 628.033264,225.718475 
	C623.682373,214.431961 623.476196,202.884842 627.452393,191.565247 
	C632.361450,177.590012 645.628052,170.126236 661.617249,171.320557 
	C672.158936,172.107956 681.620911,174.760895 687.575012,184.460114 
	C694.616333,195.930557 696.070557,225.595749 678.898743,237.000580 
M650.922180,188.164413 
	C641.331421,196.513000 643.075439,207.244217 645.210083,217.713120 
	C646.560242,224.334641 651.739319,227.756317 658.287720,227.865845 
	C664.727173,227.973557 670.314819,224.670700 671.788513,218.249771 
	C673.094238,212.560623 673.362976,206.451279 672.991333,200.597137 
	C672.207703,188.253265 663.054443,183.004669 650.922180,188.164413 
z"/>
<path fill="#FAFBFD" opacity="1.000000" stroke="none" 
	d="
M189.400726,229.378021 
	C188.533188,223.763077 187.358109,218.516937 187.214996,213.242813 
	C186.903168,201.751358 187.295990,190.241394 187.024475,178.747879 
	C186.921158,174.374039 188.609680,172.936417 192.714417,172.570480 
	C204.608170,171.510178 205.441620,172.150696 205.443939,184.084641 
	C205.445633,192.751221 205.260696,201.424118 205.545883,210.081451 
	C205.669449,213.832809 206.319077,217.706238 207.538452,221.245605 
	C208.954315,225.355316 212.499329,226.844604 216.801285,226.260284 
	C223.368698,225.368256 229.407791,218.475861 229.411911,211.883347 
	C229.418762,200.883438 229.569733,189.880249 229.336273,178.885315 
	C229.247269,174.693253 230.600784,172.941177 234.877975,172.561615 
	C246.769882,171.506287 247.742386,172.232010 247.742325,184.021622 
	C247.742218,200.854813 247.569946,217.690826 247.846954,234.519455 
	C247.929642,239.544052 246.248199,241.593140 241.315643,241.322510 
	C231.999603,240.811386 232.563049,242.555786 231.389694,232.640778 
	C223.066986,240.787720 213.655624,244.645218 202.294540,241.452850 
	C196.075455,239.705338 191.966339,235.638977 189.400726,229.378021 
z"/>
<path fill="#FCFCFE" opacity="1.000000" stroke="none" 
	d="
M396.897369,239.171722 
	C390.494537,236.249893 386.018738,231.785919 384.017517,225.492783 
	C378.929443,209.492523 378.604797,193.730774 390.311676,180.295502 
	C398.797882,170.556366 416.807037,168.542633 428.790039,174.567825 
	C441.004669,180.709473 443.851715,194.071030 442.910828,206.763138 
	C442.589050,211.103500 439.314209,211.857361 435.670105,211.850723 
	C425.173645,211.831589 414.677124,211.839355 404.180634,211.856552 
	C402.873199,211.858704 401.565948,211.981323 400.298279,212.046097 
	C399.311462,220.853836 403.685181,227.544754 412.131897,227.922348 
	C419.104431,228.234039 426.270020,226.867859 433.169281,225.397171 
	C439.417053,224.065353 440.004639,224.022812 440.078857,230.112854 
	C440.167572,237.389877 439.694366,238.248566 432.507080,240.106750 
	C420.713043,243.155960 408.899475,244.054993 396.897369,239.171722 
M408.070374,185.316345 
	C402.224091,188.220062 400.091034,193.149765 399.941315,199.465698 
	C408.546112,199.465698 416.702209,199.465698 424.837128,199.465698 
	C425.197174,188.082306 419.667847,183.260605 408.070374,185.316345 
z"/>
<path fill="#FCFCFE" opacity="1.000000" stroke="none" 
	d="
M502.611847,240.748932 
	C493.159058,242.611938 484.115173,243.311874 474.986267,241.233658 
	C463.977966,238.727554 457.021362,232.014969 454.559448,221.114395 
	C451.577057,207.909592 451.791809,194.896606 459.820435,183.224075 
	C467.166443,172.543976 481.994080,168.590408 496.740814,172.975616 
	C507.587219,176.201004 514.285645,185.735550 514.946350,198.889343 
	C515.568481,211.274261 515.021484,211.846802 502.561768,211.847107 
	C492.433105,211.847366 482.304413,211.847168 472.222992,211.847168 
	C471.469025,221.105103 475.759003,227.509888 484.229187,227.954544 
	C490.880890,228.303741 497.641174,226.645325 504.348663,225.840866 
	C506.867065,225.538818 509.745178,222.409393 511.744781,226.258545 
	C513.851440,230.313751 511.684235,237.455551 508.217804,238.922012 
	C506.540283,239.631653 504.751495,240.078323 502.611847,240.748932 
M471.985992,197.664551 
	C472.635162,198.386215 473.272430,199.722717 473.935303,199.735565 
	C481.552795,199.883041 489.174164,199.829544 496.746918,199.829544 
	C497.442596,188.670212 490.761780,182.425171 481.342255,184.982803 
	C475.394836,186.597656 473.181458,191.325745 471.985992,197.664551 
z"/>
<path fill="#FCFDFE" opacity="1.000000" stroke="none" 
	d="
M318.024963,172.473480 
	C327.394470,172.779800 327.375702,172.785599 330.027466,181.365677 
	C334.050842,194.383774 338.103363,207.392868 342.554810,221.730637 
	C345.229492,213.141617 347.536865,205.790344 349.806213,198.427338 
	C351.863953,191.751053 354.137451,185.125870 355.819702,178.354889 
	C356.853607,174.193512 359.094116,172.784042 363.140900,172.507294 
	C375.447418,171.665665 376.630768,173.030502 372.776581,184.619034 
	C367.213104,201.347153 361.486206,218.023132 356.154602,234.824677 
	C354.700500,239.407028 352.267822,241.119125 347.585022,241.319626 
	C330.536072,242.049591 330.527374,242.176193 325.236420,226.215790 
	C320.421234,211.690643 315.617706,197.161530 310.853363,182.619659 
	C307.876282,173.532883 308.287445,172.958023 318.024963,172.473480 
z"/>
<path fill="#FCFCFE" opacity="1.000000" stroke="none" 
	d="
M163.530792,187.981979 
	C152.733429,184.314636 145.310822,188.014755 143.521103,198.595383 
	C142.572556,204.203079 142.639038,210.310333 143.787231,215.874268 
	C145.949966,226.354401 154.825851,229.970016 164.479996,225.049911 
	C166.394363,224.074280 168.158539,222.799225 169.971832,221.630966 
	C173.645950,219.263840 174.691757,219.739059 175.413620,224.138641 
	C176.999420,233.803802 174.396774,238.030457 165.128235,240.841949 
	C150.528854,245.270477 136.481674,241.157135 129.334259,230.689819 
	C121.274391,218.886261 121.215874,188.890945 135.196533,177.970566 
	C144.595383,170.629089 161.311279,169.166672 171.406952,175.497833 
	C174.987350,177.743134 177.009308,188.154007 174.168869,191.232590 
	C173.423691,192.040237 171.151688,192.108994 169.911301,191.641098 
	C167.773148,190.834564 165.894135,189.341110 163.530792,187.981979 
z"/>
<path fill="#FCFCFE" opacity="1.000000" stroke="none" 
	d="
M587.003601,222.926147 
	C593.640747,228.541321 599.982605,228.409714 608.210083,222.988205 
	C609.902405,221.872986 611.937317,221.277512 613.814331,220.442474 
	C614.431702,222.594177 615.489441,224.725479 615.590271,226.901138 
	C616.031128,236.410385 611.697388,240.500076 600.001221,242.015396 
	C578.099609,244.852936 564.759216,233.513458 563.957886,211.440125 
	C563.596008,201.470459 564.432800,191.758743 570.419189,183.309952 
	C579.017151,171.175369 599.249084,167.496323 611.658936,175.673553 
	C615.008728,177.880814 616.970703,187.959213 614.234924,191.045761 
	C613.455139,191.925446 610.748901,191.745163 609.237549,191.195175 
	C606.000366,190.017136 603.106140,187.751282 599.819885,186.883591 
	C593.014404,185.086655 587.196716,187.857040 584.872131,194.360687 
	C581.456543,203.916763 581.087402,213.549652 587.003601,222.926147 
z"/>
<path fill="#FDFDFE" opacity="1.000000" stroke="none" 
	d="
M267.565186,240.662079 
	C266.657440,238.865585 265.679749,237.236725 265.670593,235.602448 
	C265.563354,216.474701 265.682617,197.345505 265.532928,178.218338 
	C265.503082,174.408325 266.798492,172.901337 270.595917,172.602875 
	C279.036285,171.939453 280.132904,172.532959 282.330963,182.160538 
	C283.516541,180.102646 283.972839,178.801712 284.845337,177.906326 
	C286.459076,176.250275 288.173370,174.611023 290.102142,173.360016 
	C294.155457,170.731018 303.671906,170.158234 304.555939,173.001877 
	C306.045563,177.793457 305.567383,183.226044 305.580017,188.389862 
	C305.580994,188.786057 302.814026,189.751160 301.519684,189.498520 
	C292.058929,187.651779 283.953949,194.074783 283.939270,203.673721 
	C283.922974,214.319046 283.798431,224.967056 284.006226,235.608337 
	C284.081696,239.472153 282.628723,241.234131 278.886932,241.170471 
	C275.238770,241.108414 271.592346,240.945709 267.565186,240.662079 
z"/>
<path fill="#FBFCFE" opacity="1.000000" stroke="none" 
	d="
M543.281006,219.827728 
	C549.948242,221.387405 551.728088,224.707275 550.908997,233.353104 
	C550.349487,239.258713 548.022522,241.611816 541.935181,241.865067 
	C537.813599,242.036514 532.381653,242.723709 531.057678,238.048248 
	C529.744995,233.412735 529.739441,227.666443 531.311584,223.157257 
	C532.975037,218.386139 538.639893,219.851837 543.281006,219.827728 
z"/>
<path fill="#3664BC" opacity="1.000000" stroke="none" 
	d="
M651.259888,187.977798 
	C663.054443,183.004669 672.207703,188.253265 672.991333,200.597137 
	C673.362976,206.451279 673.094238,212.560623 671.788513,218.249771 
	C670.314819,224.670700 664.727173,227.973557 658.287720,227.865845 
	C651.739319,227.756317 646.560242,224.334641 645.210083,217.713120 
	C643.075439,207.244217 641.331421,196.513000 651.259888,187.977798 
z"/>
<path fill="#3A66BD" opacity="1.000000" stroke="none" 
	d="
M408.432434,185.197266 
	C419.667847,183.260605 425.197174,188.082306 424.837128,199.465698 
	C416.702209,199.465698 408.546112,199.465698 399.941315,199.465698 
	C400.091034,193.149765 402.224091,188.220062 408.432434,185.197266 
z"/>
<path fill="#3A66BD" opacity="1.000000" stroke="none" 
	d="
M472.017303,197.240021 
	C473.181458,191.325745 475.394836,186.597656 481.342255,184.982803 
	C490.761780,182.425171 497.442596,188.670212 496.746918,199.829544 
	C489.174164,199.829544 481.552795,199.883041 473.935303,199.735565 
	C473.272430,199.722717 472.635162,198.386215 472.017303,197.240021 
z"/>
</svg>